<svg height="200px" width="200px" version="1.1" id="Layer_1" xmlns="http://www.w3.org/2000/svg" xmlns:xlink="http://www.w3.org/1999/xlink" viewBox="0 0 512 512" xml:space="preserve" fill="#000000"><g id="SVGRepo_bgCarrier" stroke-width="0"></g><g id="SVGRepo_tracerCarrier" stroke-linecap="round" stroke-linejoin="round"></g><g id="SVGRepo_iconCarrier"> <circle style="fill:#273B7A;" cx="256" cy="256" r="256"></circle> <path style="fill:#121149;" d="M289.383,509.835c109.13-14.214,196.656-97.152,217.747-203.969L370.481,171.27l-2.586-1.193 l-5.156-0.272l-9.051,8.476l-61.616-61.176l-57.934,143.469l-17.646-17.646l28.446-28.446l-64.415-64.415l-2.962-2.529l-2.874-1.293 l-3.305-1.867l-2.513,0.143l-14.581,2.443l-4.668,9.481l1.867,9.912l0.003,3.227l38.426,38.426h4.561l5.418,22.502l-53.357,15.574 l79.744,79.746l-47.469,73.438L289.383,509.835z"></path> <path style="fill:#71E2EF;" d="M344.336,200.454H297.05c9.802-10.221,15.839-24.083,15.839-39.362 c0-31.418-25.471-56.889-56.889-56.889s-56.889,25.471-56.889,56.889c0,15.281,6.035,29.143,15.839,39.362h-47.287 c-14.052,0-25.441,11.39-25.441,25.441v6.006c0,14.052,11.39,25.441,25.441,25.441h47.475l-42.601,111.881 c-5.591,14.681,1.779,31.115,16.462,36.705c14.681,5.591,31.115-1.779,36.704-16.46l32.18-84.513l32.18,84.513 c5.591,14.681,22.023,22.05,36.704,16.462c14.681-5.591,22.05-22.023,16.46-36.705l-42.601-111.881h43.711 c14.052,0,25.441-11.39,25.441-25.441v-6.006C369.778,211.844,358.388,200.454,344.336,200.454z"></path> <path style="fill:#38C6D9;" d="M257.881,304.954l32.18,84.513c5.591,14.681,22.023,22.05,36.704,16.462 c14.681-5.591,22.05-22.023,16.46-36.705l-42.601-111.881h43.711c14.052,0,25.441-11.39,25.441-25.441v-6.006 c0-14.052-11.39-25.441-25.441-25.441h-47.287c9.802-10.221,15.839-24.083,15.839-39.362c0-31.418-25.471-56.889-56.889-56.889 L257.881,304.954z"></path> <g> <path style="fill:#FFEDB5;" d="M202.195,226.013l-27.052-54.105c4.334-3.224,7.159-8.368,7.159-14.172 c0-9.744-7.927-17.67-17.67-17.67s-17.67,7.928-17.67,17.672s7.927,17.67,17.67,17.67c1.477,0,2.905-0.202,4.277-0.545 l27.117,54.236c0.605,1.208,1.822,1.905,3.088,1.905c0.517,0,1.043-0.115,1.539-0.364 C202.357,229.788,203.047,227.718,202.195,226.013z M153.859,157.737c0-5.941,4.834-10.774,10.774-10.774 c5.941,0,10.774,4.834,10.774,10.774c0,5.941-4.834,10.774-10.774,10.774C158.692,168.512,153.859,163.678,153.859,157.737z"></path> <path style="fill:#FFEDB5;" d="M371.907,172.794c-2.115-2.688-5.148-4.391-8.544-4.794c-3.403-0.4-6.747,0.538-9.433,2.653 c-5.549,4.365-6.513,12.429-2.153,17.975c0.453,0.576,0.957,1.098,1.489,1.581l-16.634,35.25c-0.814,1.722-0.076,3.775,1.646,4.589 c0.474,0.224,0.976,0.329,1.47,0.329c1.293,0,2.532-0.729,3.12-1.976l16.575-35.126c0.291,0.055,0.581,0.112,0.877,0.148 c0.515,0.06,1.029,0.091,1.539,0.091c2.857,0,5.613-0.95,7.892-2.744C375.303,186.404,376.27,178.341,371.907,172.794z M365.49,185.351L365.49,185.351c-1.243,0.977-2.784,1.419-4.353,1.226c-1.565-0.186-2.965-0.971-3.937-2.21 c-2.012-2.557-1.565-6.28,0.995-8.294c1.053-0.827,2.327-1.267,3.644-1.267c0.236,0,0.472,0.014,0.71,0.041 c1.565,0.186,2.965,0.971,3.937,2.21C368.499,179.615,368.05,183.336,365.49,185.351z"></path> </g> <g> <path style="fill:#386895;" d="M236.741,156.444l5.32-5.32c1.346-1.346,1.346-3.529,0-4.875c-1.346-1.346-3.529-1.346-4.875,0 l-5.32,5.32l-5.32-5.32c-1.346-1.346-3.529-1.346-4.875,0c-1.346,1.346-1.346,3.529,0,4.875l5.32,5.32l-5.32,5.32 c-1.346,1.346-1.346,3.529,0,4.875c0.674,0.674,1.555,1.01,2.438,1.01c0.883,0,1.764-0.336,2.438-1.01l5.32-5.32l5.32,5.32 c0.674,0.674,1.555,1.01,2.438,1.01c0.883,0,1.764-0.336,2.438-1.01c1.346-1.346,1.346-3.529,0-4.875L236.741,156.444z"></path> <path style="fill:#386895;" d="M281.562,156.444l5.32-5.32c1.346-1.346,1.346-3.529,0-4.875c-1.346-1.346-3.529-1.346-4.875,0 l-5.32,5.32l-5.32-5.32c-1.346-1.346-3.529-1.346-4.875,0c-1.346,1.346-1.346,3.529,0,4.875l5.32,5.32l-5.32,5.32 c-1.346,1.346-1.346,3.529,0,4.875c0.674,0.674,1.555,1.01,2.438,1.01s1.764-0.336,2.438-1.01l5.32-5.32l5.32,5.32 c0.674,0.674,1.555,1.01,2.438,1.01c0.883,0,1.764-0.336,2.438-1.01c1.346-1.346,1.346-3.529,0-4.875L281.562,156.444z"></path> </g> </g></svg>